<mxfile host="app.diagrams.net" modified="2024-05-21T06:29:23.366Z" agent="Mozilla/5.0 (Windows NT 10.0; Win64; x64) AppleWebKit/537.36 (KHTML, like Gecko) Chrome/125.0.0.0 Safari/537.36 Edg/125.0.0.0" etag="VsB1dCw-x4xv-RwmXGvr" version="24.4.4" type="github">
  <diagram name="第 1 页" id="185f3p6IT1ciht2usPEY">
    <mxGraphModel dx="1781" dy="968" grid="1" gridSize="10" guides="1" tooltips="1" connect="1" arrows="1" fold="1" page="1" pageScale="1" pageWidth="827" pageHeight="1169" math="0" shadow="0">
      <root>
        <mxCell id="0" />
        <mxCell id="1" parent="0" />
        <mxCell id="f-30hHIi__xefFYYYYdv-177" value="" style="rounded=1;whiteSpace=wrap;html=1;fillColor=#CCE5FF;strokeColor=#000000;" vertex="1" parent="1">
          <mxGeometry x="160" y="180" width="230" height="270" as="geometry" />
        </mxCell>
        <mxCell id="f-30hHIi__xefFYYYYdv-178" value="&lt;font color=&quot;#ffffff&quot;&gt;&lt;b&gt;观测&lt;/b&gt;&lt;/font&gt;" style="rounded=1;whiteSpace=wrap;html=1;fillColor=#4472C4;strokeWidth=0.5;" vertex="1" parent="1">
          <mxGeometry x="270" y="205" width="70" height="40" as="geometry" />
        </mxCell>
        <mxCell id="f-30hHIi__xefFYYYYdv-179" value="&lt;font color=&quot;#ffffff&quot;&gt;&lt;b&gt;认知&lt;/b&gt;&lt;/font&gt;" style="rounded=1;whiteSpace=wrap;html=1;fillColor=#4472C4;strokeWidth=0.5;" vertex="1" parent="1">
          <mxGeometry x="270" y="270" width="70" height="40" as="geometry" />
        </mxCell>
        <mxCell id="f-30hHIi__xefFYYYYdv-180" value="&lt;font color=&quot;#ffffff&quot;&gt;&lt;b&gt;决策&lt;/b&gt;&lt;/font&gt;" style="rounded=1;whiteSpace=wrap;html=1;fillColor=#4472C4;strokeWidth=0.5;" vertex="1" parent="1">
          <mxGeometry x="270" y="337" width="70" height="40" as="geometry" />
        </mxCell>
        <mxCell id="f-30hHIi__xefFYYYYdv-181" value="&lt;font color=&quot;#ffffff&quot;&gt;&lt;b&gt;反应机制&lt;/b&gt;&lt;/font&gt;" style="rounded=1;whiteSpace=wrap;html=1;fillColor=#4472C4;strokeWidth=0.5;" vertex="1" parent="1">
          <mxGeometry x="270" y="401" width="70" height="40" as="geometry" />
        </mxCell>
        <mxCell id="f-30hHIi__xefFYYYYdv-182" value="" style="endArrow=classic;html=1;rounded=0;exitX=0.5;exitY=1;exitDx=0;exitDy=0;entryX=0.5;entryY=0;entryDx=0;entryDy=0;" edge="1" parent="1" source="f-30hHIi__xefFYYYYdv-178" target="f-30hHIi__xefFYYYYdv-179">
          <mxGeometry width="50" height="50" relative="1" as="geometry">
            <mxPoint x="120" y="380" as="sourcePoint" />
            <mxPoint x="170" y="330" as="targetPoint" />
          </mxGeometry>
        </mxCell>
        <mxCell id="f-30hHIi__xefFYYYYdv-183" value="" style="endArrow=classic;html=1;rounded=0;exitX=0.5;exitY=1;exitDx=0;exitDy=0;entryX=0.5;entryY=0;entryDx=0;entryDy=0;" edge="1" parent="1" source="f-30hHIi__xefFYYYYdv-179" target="f-30hHIi__xefFYYYYdv-180">
          <mxGeometry width="50" height="50" relative="1" as="geometry">
            <mxPoint x="260" y="530" as="sourcePoint" />
            <mxPoint x="310" y="480" as="targetPoint" />
          </mxGeometry>
        </mxCell>
        <mxCell id="f-30hHIi__xefFYYYYdv-184" value="&lt;font color=&quot;#ffffff&quot;&gt;&lt;b&gt;驾驶风格&lt;/b&gt;&lt;/font&gt;" style="rounded=1;whiteSpace=wrap;html=1;fillColor=#4472C4;strokeWidth=0.5;" vertex="1" parent="1">
          <mxGeometry x="180" y="337" width="70" height="40" as="geometry" />
        </mxCell>
        <mxCell id="f-30hHIi__xefFYYYYdv-185" value="" style="endArrow=classic;html=1;rounded=0;exitX=1;exitY=0.5;exitDx=0;exitDy=0;entryX=0;entryY=0.5;entryDx=0;entryDy=0;" edge="1" parent="1" source="f-30hHIi__xefFYYYYdv-184" target="f-30hHIi__xefFYYYYdv-180">
          <mxGeometry width="50" height="50" relative="1" as="geometry">
            <mxPoint x="315" y="330" as="sourcePoint" />
            <mxPoint x="250" y="510" as="targetPoint" />
          </mxGeometry>
        </mxCell>
        <mxCell id="f-30hHIi__xefFYYYYdv-186" value="" style="endArrow=classic;html=1;rounded=0;entryX=0.5;entryY=1;entryDx=0;entryDy=0;exitX=0.5;exitY=0;exitDx=0;exitDy=0;" edge="1" parent="1" source="f-30hHIi__xefFYYYYdv-181" target="f-30hHIi__xefFYYYYdv-180">
          <mxGeometry width="50" height="50" relative="1" as="geometry">
            <mxPoint x="340" y="370" as="sourcePoint" />
            <mxPoint x="280" y="380" as="targetPoint" />
          </mxGeometry>
        </mxCell>
        <mxCell id="f-30hHIi__xefFYYYYdv-187" value="" style="rounded=1;whiteSpace=wrap;html=1;fillColor=#d5e8d4;strokeColor=#000000;movable=1;resizable=1;rotatable=1;deletable=1;editable=1;locked=0;connectable=1;" vertex="1" parent="1">
          <mxGeometry x="442.5" y="177" width="227.5" height="273" as="geometry" />
        </mxCell>
        <mxCell id="f-30hHIi__xefFYYYYdv-188" value="&lt;b&gt;观测&lt;/b&gt;" style="rounded=1;whiteSpace=wrap;html=1;fillColor=#FFFFFF;strokeWidth=0.5;dashed=1;" vertex="1" parent="1">
          <mxGeometry x="496" y="202" width="70" height="40" as="geometry" />
        </mxCell>
        <mxCell id="f-30hHIi__xefFYYYYdv-189" value="&lt;b&gt;认知&lt;/b&gt;" style="rounded=1;whiteSpace=wrap;html=1;fillColor=#FFFFFF;strokeWidth=0.5;dashed=1;" vertex="1" parent="1">
          <mxGeometry x="496" y="271" width="70" height="40" as="geometry" />
        </mxCell>
        <mxCell id="f-30hHIi__xefFYYYYdv-190" value="&lt;b&gt;决策&lt;/b&gt;" style="rounded=1;whiteSpace=wrap;html=1;fillColor=#FFFFFF;strokeWidth=0.5;dashed=1;" vertex="1" parent="1">
          <mxGeometry x="496" y="337" width="70" height="40" as="geometry" />
        </mxCell>
        <mxCell id="f-30hHIi__xefFYYYYdv-191" value="&lt;b&gt;反应机制&lt;/b&gt;" style="rounded=1;whiteSpace=wrap;html=1;fillColor=#FFFFFF;strokeWidth=0.5;strokeColor=#000000;dashed=1;" vertex="1" parent="1">
          <mxGeometry x="496" y="401" width="70" height="40" as="geometry" />
        </mxCell>
        <mxCell id="f-30hHIi__xefFYYYYdv-192" value="" style="endArrow=classic;html=1;rounded=0;exitX=0.5;exitY=1;exitDx=0;exitDy=0;entryX=0.5;entryY=0;entryDx=0;entryDy=0;" edge="1" parent="1" source="f-30hHIi__xefFYYYYdv-188" target="f-30hHIi__xefFYYYYdv-189">
          <mxGeometry width="50" height="50" relative="1" as="geometry">
            <mxPoint x="336" y="298" as="sourcePoint" />
            <mxPoint x="386" y="248" as="targetPoint" />
          </mxGeometry>
        </mxCell>
        <mxCell id="f-30hHIi__xefFYYYYdv-193" value="" style="endArrow=classic;html=1;rounded=0;exitX=0.5;exitY=1;exitDx=0;exitDy=0;entryX=0.5;entryY=0;entryDx=0;entryDy=0;" edge="1" parent="1" source="f-30hHIi__xefFYYYYdv-189" target="f-30hHIi__xefFYYYYdv-190">
          <mxGeometry width="50" height="50" relative="1" as="geometry">
            <mxPoint x="476" y="448" as="sourcePoint" />
            <mxPoint x="526" y="398" as="targetPoint" />
          </mxGeometry>
        </mxCell>
        <mxCell id="f-30hHIi__xefFYYYYdv-194" value="&lt;b&gt;驾驶风格&lt;/b&gt;" style="rounded=1;whiteSpace=wrap;html=1;fillColor=#FFFFFF;strokeWidth=0.5;dashed=1;" vertex="1" parent="1">
          <mxGeometry x="584" y="337" width="70" height="40" as="geometry" />
        </mxCell>
        <mxCell id="f-30hHIi__xefFYYYYdv-195" value="" style="endArrow=classic;html=1;rounded=0;exitX=1;exitY=0.5;exitDx=0;exitDy=0;entryX=0;entryY=0.5;entryDx=0;entryDy=0;" edge="1" parent="1" source="f-30hHIi__xefFYYYYdv-180" target="f-30hHIi__xefFYYYYdv-196">
          <mxGeometry width="50" height="50" relative="1" as="geometry">
            <mxPoint x="430" y="490" as="sourcePoint" />
            <mxPoint x="510" y="370" as="targetPoint" />
          </mxGeometry>
        </mxCell>
        <mxCell id="f-30hHIi__xefFYYYYdv-196" value="&lt;font color=&quot;#ffffff&quot; style=&quot;font-size: 24px;&quot;&gt;-&lt;/font&gt;" style="ellipse;whiteSpace=wrap;html=1;aspect=fixed;strokeColor=#000000;fillColor=#000000;" vertex="1" parent="1">
          <mxGeometry x="400" y="342" width="30" height="30" as="geometry" />
        </mxCell>
        <mxCell id="f-30hHIi__xefFYYYYdv-197" value="" style="rounded=1;whiteSpace=wrap;html=1;fillColor=#FFFFED;strokeColor=#000000;" vertex="1" parent="1">
          <mxGeometry x="330" y="500" width="300" height="140" as="geometry" />
        </mxCell>
        <mxCell id="f-30hHIi__xefFYYYYdv-198" value="&lt;span style=&quot;font-size: 11px;&quot;&gt;&lt;b&gt;风险分析&lt;/b&gt;&lt;/span&gt;" style="rounded=1;whiteSpace=wrap;html=1;fillColor=#FFF4AB;strokeWidth=0.5;strokeColor=#d6b656;" vertex="1" parent="1">
          <mxGeometry x="340" y="550" width="70" height="40" as="geometry" />
        </mxCell>
        <mxCell id="f-30hHIi__xefFYYYYdv-199" value="" style="endArrow=none;dashed=1;html=1;rounded=0;exitX=0;exitY=0;exitDx=0;exitDy=0;entryX=0.038;entryY=0.975;entryDx=0;entryDy=0;entryPerimeter=0;fillColor=#d5e8d4;strokeColor=#82b366;" edge="1" parent="1" source="f-30hHIi__xefFYYYYdv-208" target="f-30hHIi__xefFYYYYdv-187">
          <mxGeometry width="50" height="50" relative="1" as="geometry">
            <mxPoint x="515.6300000000001" y="520" as="sourcePoint" />
            <mxPoint x="530" y="430" as="targetPoint" />
          </mxGeometry>
        </mxCell>
        <mxCell id="f-30hHIi__xefFYYYYdv-200" value="" style="endArrow=none;dashed=1;html=1;rounded=0;exitX=1;exitY=0;exitDx=0;exitDy=0;fillColor=#d5e8d4;strokeColor=#82b366;" edge="1" parent="1" source="f-30hHIi__xefFYYYYdv-208">
          <mxGeometry width="50" height="50" relative="1" as="geometry">
            <mxPoint x="556.8800000000001" y="520" as="sourcePoint" />
            <mxPoint x="640" y="450" as="targetPoint" />
          </mxGeometry>
        </mxCell>
        <mxCell id="f-30hHIi__xefFYYYYdv-201" value="。&lt;br&gt;。&lt;br&gt;。" style="text;html=1;align=center;verticalAlign=middle;resizable=0;points=[];autosize=1;strokeColor=none;fillColor=none;" vertex="1" parent="1">
          <mxGeometry x="481.25" y="536" width="40" height="60" as="geometry" />
        </mxCell>
        <mxCell id="f-30hHIi__xefFYYYYdv-202" value="" style="endArrow=none;html=1;rounded=0;entryX=0;entryY=0.5;entryDx=0;entryDy=0;" edge="1" parent="1" target="f-30hHIi__xefFYYYYdv-209">
          <mxGeometry width="50" height="50" relative="1" as="geometry">
            <mxPoint x="430" y="570" as="sourcePoint" />
            <mxPoint x="445.6300000000001" y="610" as="targetPoint" />
            <Array as="points">
              <mxPoint x="430" y="610" />
            </Array>
          </mxGeometry>
        </mxCell>
        <mxCell id="f-30hHIi__xefFYYYYdv-203" value="" style="endArrow=classic;html=1;rounded=0;entryX=0.5;entryY=1;entryDx=0;entryDy=0;exitX=0;exitY=0.5;exitDx=0;exitDy=0;" edge="1" parent="1" source="f-30hHIi__xefFYYYYdv-198" target="f-30hHIi__xefFYYYYdv-181">
          <mxGeometry width="50" height="50" relative="1" as="geometry">
            <mxPoint x="270" y="560" as="sourcePoint" />
            <mxPoint x="320" y="510" as="targetPoint" />
            <Array as="points">
              <mxPoint x="305" y="570" />
            </Array>
          </mxGeometry>
        </mxCell>
        <mxCell id="f-30hHIi__xefFYYYYdv-204" value="" style="endArrow=classic;html=1;rounded=0;entryX=1;entryY=0.5;entryDx=0;entryDy=0;exitX=0;exitY=0.5;exitDx=0;exitDy=0;" edge="1" parent="1" source="f-30hHIi__xefFYYYYdv-208" target="f-30hHIi__xefFYYYYdv-198">
          <mxGeometry width="50" height="50" relative="1" as="geometry">
            <mxPoint x="445.6300000000001" y="530" as="sourcePoint" />
            <mxPoint x="410" y="720" as="targetPoint" />
            <Array as="points">
              <mxPoint x="430" y="530" />
              <mxPoint x="430" y="570" />
            </Array>
          </mxGeometry>
        </mxCell>
        <mxCell id="f-30hHIi__xefFYYYYdv-205" value="&lt;i&gt;&lt;b&gt;&lt;font style=&quot;font-size: 11px;&quot;&gt;驾驶辅助&lt;/font&gt;&lt;/b&gt;&lt;/i&gt;" style="text;html=1;align=center;verticalAlign=middle;resizable=0;points=[];autosize=1;strokeColor=none;fillColor=none;" vertex="1" parent="1">
          <mxGeometry x="245" y="480" width="70" height="30" as="geometry" />
        </mxCell>
        <mxCell id="f-30hHIi__xefFYYYYdv-206" value="&lt;i&gt;&lt;b&gt;&lt;font style=&quot;font-size: 11px;&quot;&gt;驾驶动作&lt;/font&gt;&lt;/b&gt;&lt;/i&gt;" style="text;html=1;align=center;verticalAlign=middle;resizable=0;points=[];autosize=1;strokeColor=none;fillColor=none;" vertex="1" parent="1">
          <mxGeometry x="330" y="330" width="70" height="30" as="geometry" />
        </mxCell>
        <mxCell id="f-30hHIi__xefFYYYYdv-207" value="&lt;b style=&quot;font-size: 11px;&quot;&gt;&lt;i&gt;&lt;font style=&quot;font-size: 11px;&quot;&gt;预测&lt;/font&gt;&lt;/i&gt;&lt;/b&gt;&lt;div style=&quot;font-size: 11px;&quot;&gt;&lt;b&gt;&lt;i&gt;&lt;font style=&quot;font-size: 11px;&quot;&gt;驾驶动作&lt;/font&gt;&lt;/i&gt;&lt;/b&gt;&lt;/div&gt;" style="text;html=1;align=center;verticalAlign=middle;resizable=0;points=[];autosize=1;strokeColor=none;fillColor=none;" vertex="1" parent="1">
          <mxGeometry x="431" y="320" width="70" height="40" as="geometry" />
        </mxCell>
        <mxCell id="f-30hHIi__xefFYYYYdv-208" value="&lt;b&gt;数字孪生&lt;/b&gt;" style="rounded=1;whiteSpace=wrap;html=1;fillColor=#d5e8d4;strokeColor=#82b366;" vertex="1" parent="1">
          <mxGeometry x="470" y="520" width="51.25" height="20" as="geometry" />
        </mxCell>
        <mxCell id="f-30hHIi__xefFYYYYdv-209" value="&lt;b&gt;数字孪生&lt;/b&gt;" style="rounded=1;whiteSpace=wrap;html=1;fillColor=#d5e8d4;strokeColor=#82b366;" vertex="1" parent="1">
          <mxGeometry x="470" y="600" width="51.25" height="20" as="geometry" />
        </mxCell>
        <mxCell id="f-30hHIi__xefFYYYYdv-210" value="&lt;b style=&quot;border-color: var(--border-color); color: rgb(255, 0, 0);&quot;&gt;&lt;font style=&quot;font-size: 14px;&quot;&gt;驾驶决策过程&lt;/font&gt;&lt;/b&gt;" style="text;html=1;align=center;verticalAlign=middle;whiteSpace=wrap;rounded=0;" vertex="1" parent="1">
          <mxGeometry x="101" y="177" width="345" height="30" as="geometry" />
        </mxCell>
        <mxCell id="f-30hHIi__xefFYYYYdv-211" value="&lt;font color=&quot;#ff0000&quot;&gt;&lt;span style=&quot;font-size: 14px;&quot;&gt;&lt;b&gt;认知数字孪生&lt;/b&gt;&lt;/span&gt;&lt;/font&gt;" style="text;html=1;align=center;verticalAlign=middle;whiteSpace=wrap;rounded=0;" vertex="1" parent="1">
          <mxGeometry x="383.75" y="175" width="345" height="30" as="geometry" />
        </mxCell>
        <mxCell id="f-30hHIi__xefFYYYYdv-212" value="&lt;span style=&quot;font-size: 10px;&quot;&gt;&lt;b&gt;&lt;i&gt;预测动作0&lt;/i&gt;&lt;/b&gt;&lt;/span&gt;" style="text;html=1;align=center;verticalAlign=middle;resizable=0;points=[];autosize=1;strokeColor=none;fillColor=none;" vertex="1" parent="1">
          <mxGeometry x="426" y="536" width="70" height="30" as="geometry" />
        </mxCell>
        <mxCell id="f-30hHIi__xefFYYYYdv-213" value="&lt;span style=&quot;font-size: 10px;&quot;&gt;&lt;b&gt;&lt;i&gt;预测动作n&lt;/i&gt;&lt;/b&gt;&lt;/span&gt;" style="text;html=1;align=center;verticalAlign=middle;resizable=0;points=[];autosize=1;strokeColor=none;fillColor=none;" vertex="1" parent="1">
          <mxGeometry x="426" y="570" width="70" height="30" as="geometry" />
        </mxCell>
        <mxCell id="f-30hHIi__xefFYYYYdv-214" value="" style="endArrow=classic;html=1;rounded=0;entryX=0.5;entryY=1;entryDx=0;entryDy=0;exitX=0.5;exitY=0;exitDx=0;exitDy=0;" edge="1" parent="1" source="f-30hHIi__xefFYYYYdv-191" target="f-30hHIi__xefFYYYYdv-190">
          <mxGeometry width="50" height="50" relative="1" as="geometry">
            <mxPoint x="637.5" y="511" as="sourcePoint" />
            <mxPoint x="687.5" y="461" as="targetPoint" />
          </mxGeometry>
        </mxCell>
        <mxCell id="f-30hHIi__xefFYYYYdv-215" value="&lt;b&gt;辅助选项&lt;/b&gt;" style="rounded=1;whiteSpace=wrap;html=1;fillColor=#FFF4AB;strokeWidth=0.5;strokeColor=#d6b656;" vertex="1" parent="1">
          <mxGeometry x="550" y="550" width="70" height="40" as="geometry" />
        </mxCell>
        <mxCell id="f-30hHIi__xefFYYYYdv-216" value="" style="endArrow=classic;html=1;rounded=0;exitX=0;exitY=0.5;exitDx=0;exitDy=0;entryX=1;entryY=0.5;entryDx=0;entryDy=0;" edge="1" parent="1" source="f-30hHIi__xefFYYYYdv-215" target="f-30hHIi__xefFYYYYdv-209">
          <mxGeometry width="50" height="50" relative="1" as="geometry">
            <mxPoint x="450" y="750" as="sourcePoint" />
            <mxPoint x="760" y="700" as="targetPoint" />
            <Array as="points">
              <mxPoint x="540" y="570" />
              <mxPoint x="540" y="610" />
              <mxPoint x="530" y="610" />
            </Array>
          </mxGeometry>
        </mxCell>
        <mxCell id="f-30hHIi__xefFYYYYdv-217" value="" style="endArrow=classic;html=1;rounded=0;entryX=1;entryY=0.5;entryDx=0;entryDy=0;" edge="1" parent="1" target="f-30hHIi__xefFYYYYdv-208">
          <mxGeometry width="50" height="50" relative="1" as="geometry">
            <mxPoint x="540" y="570" as="sourcePoint" />
            <mxPoint x="530" y="690" as="targetPoint" />
            <Array as="points">
              <mxPoint x="540" y="530" />
            </Array>
          </mxGeometry>
        </mxCell>
        <mxCell id="f-30hHIi__xefFYYYYdv-234" style="edgeStyle=orthogonalEdgeStyle;rounded=0;orthogonalLoop=1;jettySize=auto;html=1;entryX=0;entryY=0.5;entryDx=0;entryDy=0;" edge="1" parent="1" source="f-30hHIi__xefFYYYYdv-218" target="f-30hHIi__xefFYYYYdv-188">
          <mxGeometry relative="1" as="geometry" />
        </mxCell>
        <mxCell id="f-30hHIi__xefFYYYYdv-218" value="&lt;b&gt;&lt;i&gt;&lt;font style=&quot;font-size: 11px;&quot;&gt;驾驶环境&lt;/font&gt;&lt;/i&gt;&lt;/b&gt;" style="text;html=1;align=center;verticalAlign=middle;resizable=0;points=[];autosize=1;strokeColor=none;fillColor=none;" vertex="1" parent="1">
          <mxGeometry x="380" y="207" width="70" height="30" as="geometry" />
        </mxCell>
        <mxCell id="f-30hHIi__xefFYYYYdv-219" value="" style="endArrow=classic;html=1;rounded=0;exitX=0;exitY=0.5;exitDx=0;exitDy=0;entryX=1;entryY=0.5;entryDx=0;entryDy=0;" edge="1" parent="1" source="f-30hHIi__xefFYYYYdv-190" target="f-30hHIi__xefFYYYYdv-196">
          <mxGeometry width="50" height="50" relative="1" as="geometry">
            <mxPoint x="380" y="140" as="sourcePoint" />
            <mxPoint x="430" y="90" as="targetPoint" />
          </mxGeometry>
        </mxCell>
        <mxCell id="f-30hHIi__xefFYYYYdv-220" value="" style="endArrow=classic;html=1;rounded=0;exitX=0;exitY=0.5;exitDx=0;exitDy=0;entryX=1;entryY=0.5;entryDx=0;entryDy=0;" edge="1" parent="1" source="f-30hHIi__xefFYYYYdv-194" target="f-30hHIi__xefFYYYYdv-190">
          <mxGeometry width="50" height="50" relative="1" as="geometry">
            <mxPoint x="260" y="367" as="sourcePoint" />
            <mxPoint x="560" y="357" as="targetPoint" />
          </mxGeometry>
        </mxCell>
        <mxCell id="f-30hHIi__xefFYYYYdv-221" value="" style="endArrow=classic;html=1;rounded=0;entryX=1;entryY=0.5;entryDx=0;entryDy=0;strokeColor=#FF0000;" edge="1" parent="1" target="f-30hHIi__xefFYYYYdv-189">
          <mxGeometry width="50" height="50" relative="1" as="geometry">
            <mxPoint x="710" y="360" as="sourcePoint" />
            <mxPoint x="770" y="250" as="targetPoint" />
            <Array as="points">
              <mxPoint x="710" y="291" />
            </Array>
          </mxGeometry>
        </mxCell>
        <mxCell id="f-30hHIi__xefFYYYYdv-222" value="" style="verticalLabelPosition=bottom;verticalAlign=top;html=1;shape=mxgraph.basic.arc;startAngle=0.25636280567399594;endAngle=0.7436371943260041;strokeColor=#FF0000;" vertex="1" parent="1">
          <mxGeometry x="521" y="377" width="20" height="20" as="geometry" />
        </mxCell>
        <mxCell id="f-30hHIi__xefFYYYYdv-223" value="" style="endArrow=none;html=1;rounded=0;entryX=0.5;entryY=1;entryDx=0;entryDy=0;exitX=0.017;exitY=0.553;exitDx=0;exitDy=0;exitPerimeter=0;strokeColor=#FF0000;" edge="1" parent="1">
          <mxGeometry width="50" height="50" relative="1" as="geometry">
            <mxPoint x="521.34" y="388.06" as="sourcePoint" />
            <mxPoint x="415.0000000000001" y="372" as="targetPoint" />
            <Array as="points">
              <mxPoint x="415" y="388" />
            </Array>
          </mxGeometry>
        </mxCell>
        <mxCell id="f-30hHIi__xefFYYYYdv-224" value="" style="endArrow=classic;html=1;rounded=0;exitX=1.003;exitY=0.54;exitDx=0;exitDy=0;exitPerimeter=0;entryX=1;entryY=0.5;entryDx=0;entryDy=0;strokeColor=#FF0000;" edge="1" parent="1" source="f-30hHIi__xefFYYYYdv-222" target="f-30hHIi__xefFYYYYdv-194">
          <mxGeometry width="50" height="50" relative="1" as="geometry">
            <mxPoint x="670" y="440" as="sourcePoint" />
            <mxPoint x="720" y="390" as="targetPoint" />
            <Array as="points">
              <mxPoint x="710" y="388" />
              <mxPoint x="710" y="357" />
            </Array>
          </mxGeometry>
        </mxCell>
        <mxCell id="f-30hHIi__xefFYYYYdv-226" value="" style="endArrow=classic;html=1;rounded=0;entryX=1;entryY=0.5;entryDx=0;entryDy=0;exitX=-0.022;exitY=0.617;exitDx=0;exitDy=0;exitPerimeter=0;" edge="1" parent="1" source="f-30hHIi__xefFYYYYdv-218" target="f-30hHIi__xefFYYYYdv-178">
          <mxGeometry width="50" height="50" relative="1" as="geometry">
            <mxPoint x="350" y="237" as="sourcePoint" />
            <mxPoint x="400" y="187" as="targetPoint" />
          </mxGeometry>
        </mxCell>
        <mxCell id="f-30hHIi__xefFYYYYdv-227" value="" style="endArrow=classic;html=1;rounded=0;entryX=0.5;entryY=1;entryDx=0;entryDy=0;" edge="1" parent="1" target="f-30hHIi__xefFYYYYdv-191">
          <mxGeometry width="50" height="50" relative="1" as="geometry">
            <mxPoint x="305" y="480" as="sourcePoint" />
            <mxPoint x="536" y="441" as="targetPoint" />
            <Array as="points">
              <mxPoint x="531" y="480" />
            </Array>
          </mxGeometry>
        </mxCell>
        <mxCell id="f-30hHIi__xefFYYYYdv-228" value="" style="endArrow=classic;html=1;rounded=0;entryX=0.5;entryY=1;entryDx=0;entryDy=0;exitX=0.097;exitY=1.065;exitDx=0;exitDy=0;exitPerimeter=0;" edge="1" parent="1" source="f-30hHIi__xefFYYYYdv-211" target="f-30hHIi__xefFYYYYdv-198">
          <mxGeometry width="50" height="50" relative="1" as="geometry">
            <mxPoint x="420" y="150" as="sourcePoint" />
            <mxPoint x="200" y="600" as="targetPoint" />
            <Array as="points">
              <mxPoint x="417" y="150" />
              <mxPoint x="150" y="150" />
              <mxPoint x="150" y="620" />
              <mxPoint x="375" y="620" />
            </Array>
          </mxGeometry>
        </mxCell>
        <mxCell id="f-30hHIi__xefFYYYYdv-229" value="&lt;b&gt;&lt;i&gt;&lt;font style=&quot;font-size: 11px;&quot;&gt;状态估计&lt;/font&gt;&lt;/i&gt;&lt;/b&gt;" style="text;html=1;align=center;verticalAlign=middle;resizable=0;points=[];autosize=1;strokeColor=none;fillColor=none;" vertex="1" parent="1">
          <mxGeometry x="590" y="268" width="70" height="30" as="geometry" />
        </mxCell>
        <mxCell id="f-30hHIi__xefFYYYYdv-230" value="&lt;b&gt;&lt;i&gt;参数识别&lt;/i&gt;&lt;/b&gt;" style="text;html=1;align=center;verticalAlign=middle;resizable=0;points=[];autosize=1;strokeColor=none;fillColor=none;" vertex="1" parent="1">
          <mxGeometry x="658.75" y="320" width="70" height="30" as="geometry" />
        </mxCell>
        <mxCell id="f-30hHIi__xefFYYYYdv-231" value="&lt;font color=&quot;#ff0000&quot;&gt;&lt;span style=&quot;font-size: 14px;&quot;&gt;&lt;b&gt;驾驶决策辅助系统&lt;/b&gt;&lt;/span&gt;&lt;/font&gt;" style="text;html=1;align=center;verticalAlign=middle;whiteSpace=wrap;rounded=0;" vertex="1" parent="1">
          <mxGeometry x="309" y="496" width="345" height="30" as="geometry" />
        </mxCell>
      </root>
    </mxGraphModel>
  </diagram>
</mxfile>
